<svg xmlns="http://www.w3.org/2000/svg" viewBox="0 0 1024 1024" width="1024" height="1024">
  <defs>
    <linearGradient id="bgGrad" x1="14%" y1="12%" x2="86%" y2="88%">
      <stop offset="0%" stop-color="#365DF5" />
      <stop offset="48%" stop-color="#5146E5" />
      <stop offset="100%" stop-color="#6E5BFF" />
    </linearGradient>
    <radialGradient id="highlight" cx="28%" cy="18%" r="80%">
      <stop offset="0%" stop-color="#FFFFFF" stop-opacity="0.24" />
      <stop offset="55%" stop-color="#C7D2FE" stop-opacity="0.08" />
      <stop offset="100%" stop-color="#FFFFFF" stop-opacity="0" />
    </radialGradient>
    <linearGradient id="waveGrad" x1="0%" y1="0%" x2="100%" y2="100%">
      <stop offset="0%" stop-color="#FFFFFF" />
      <stop offset="100%" stop-color="#CFFAFE" />
    </linearGradient>
  </defs>

  <g transform="translate(51.2 51.2) scale(0.9)">
    <rect x="56" y="56" width="912" height="912" rx="228" fill="url(#bgGrad)" />
    <rect x="56" y="56" width="912" height="912" rx="228" fill="url(#highlight)" />
    <rect
      x="76"
      y="76"
      width="872"
      height="872"
      rx="210"
      fill="none"
      stroke="#FFFFFF"
      stroke-opacity="0.12"
      stroke-width="10"
    />

    <g fill="#FFFFFF">
      <rect x="236" y="214" width="116" height="596" rx="52" />
      <rect x="236" y="214" width="386" height="112" rx="52" />
      <rect x="236" y="456" width="316" height="100" rx="46" />
      <rect x="236" y="698" width="386" height="112" rx="52" />
    </g>

    <g fill="none" stroke="url(#waveGrad)" stroke-linecap="round">
      <path d="M 694 424 A 128 128 0 0 1 694 600" stroke-width="54" />
      <path d="M 762 356 A 214 214 0 0 1 762 668" stroke-width="40" stroke-opacity="0.9" />
    </g>

    <circle cx="644" cy="512" r="28" fill="#E0F2FE" />
  </g>
</svg>
